<?xml version="1.0" encoding="UTF-8"?>
<svg version="1.1" xmlns="http://www.w3.org/2000/svg" width="2560" height="1434">
<path d="M0 0 C0.61570862 0.27261658 1.23141724 0.54523315 1.86578369 0.82611084 C32.65901676 14.4981483 61.16254924 31.08380377 89 50 C89.77585449 50.5259375 90.55170898 51.051875 91.35107422 51.59375 C102.65940259 59.26635282 113.87391657 67.06559498 125 75 C125.70946777 75.50466797 126.41893555 76.00933594 127.14990234 76.52929688 C137.91457335 84.1972817 148.47224636 92.11165894 158.9609375 100.15234375 C162.71524147 103.02799593 166.49579311 105.86411651 170.296875 108.67749023 C179.46290943 115.4706675 188.26746627 122.66059422 197 130 C197.92425781 130.7734375 197.92425781 130.7734375 198.8671875 131.5625 C239.17435575 165.35715635 239.17435575 165.35715635 240.9375 180.75 C241.70518227 202.4184512 236.48109346 223.93452141 232 245 C231.85689392 245.67274963 231.71378784 246.34549927 231.56634521 247.03863525 C220.55708947 298.43828961 205.27650467 348.99198418 190.63893223 399.4493866 C166.10039573 482.44721507 166.10039573 482.44721507 144.3125 566.1875 C144.15047089 566.86801422 143.98844177 567.54852844 143.82150269 568.24966431 C141.9990198 575.95838879 140.49643208 583.63274816 139.41870117 591.48168945 C139 594 139 594 138 596 C134.6712479 594.89041597 133.98510301 594.07455496 131.8125 591.4375 C128.76997013 587.84411209 125.57363345 584.51937022 122.1875 581.25 C120.42301121 579.43509725 118.80265335 577.59946521 117.16772461 575.67211914 C111.77994063 569.50103352 105.92401238 563.78010612 100.12890625 557.99609375 C98.8799762 556.74648855 97.63119449 555.49673507 96.3825531 554.24684143 C93.77610569 551.63892696 91.16787706 549.03281093 88.55834961 546.42797852 C85.23211479 543.10744035 81.91039066 539.78243188 78.58999729 536.45605373 C76.01544177 533.87786574 73.43848585 531.30208756 70.86082268 528.72700691 C69.63582132 527.5026674 68.41154781 526.27759916 67.18805122 525.05175591 C60.96554983 518.81993763 54.70669048 512.71571531 48 507 C46.61803565 505.72259845 45.24420913 504.43619274 43.88671875 503.1328125 C43.20182373 502.47949951 42.51692871 501.82618652 41.8112793 501.15307617 C40.76000854 500.14917847 40.76000854 500.14917847 39.6875 499.125 C34.15764789 493.87826864 28.57487485 488.87792632 22.60546875 484.13671875 C19.63299242 481.69902077 16.81233307 479.11805415 14 476.5 C8.52717602 471.415201 2.82327214 466.68062426 -3 462 C-4.68799565 460.6047661 -6.37548348 459.20891764 -8.0625 457.8125 C-80.69788493 398.46784508 -166.73696334 342.58801978 -262 332 C-262.81525146 331.9057373 -263.63050293 331.81147461 -264.47045898 331.71435547 C-319.62209992 325.95877491 -376.74194959 339.62835459 -422 372 C-423.00933594 372.7115625 -424.01867188 373.423125 -425.05859375 374.15625 C-449.37068912 392.01091 -467.33296042 415.51910982 -472.25 445.875 C-478.78655732 499.28632875 -446.31585638 549.75714809 -415 590 C-414.06767848 591.20961241 -413.13538673 592.41924776 -412.203125 593.62890625 C-406.46407732 601.03654012 -400.51157204 608.24233384 -394.40917969 615.35253906 C-392.97597461 617.0280879 -391.55350262 618.71226974 -390.1328125 620.3984375 C-383.73037073 627.97117216 -377.08765688 635.2739268 -370.2890625 642.4921875 C-366.65467045 646.35386059 -363.10583881 650.2862508 -359.57421875 654.2421875 C-358.73528728 655.17895961 -357.88919851 656.11080149 -357 657 C-353.95257986 657.10167489 -350.92769867 657.13672226 -347.87972444 657.13061053 C-346.90416482 657.13258304 -345.9286052 657.13455555 -344.92348317 657.13658784 C-341.60423671 657.1420514 -338.28503126 657.1402974 -334.96578121 657.1386652 C-332.5718998 657.14110959 -330.17801881 657.14399254 -327.78413841 657.14727798 C-322.53692173 657.15345813 -317.28971678 657.15648832 -312.04249745 657.15683801 C-304.18721608 657.1573813 -296.33194659 657.16366231 -288.4766691 657.17110313 C-275.09214447 657.18361335 -261.7076208 657.1913674 -248.32309151 657.19658089 C-234.75061454 657.20188685 -221.17814136 657.20935996 -207.60566711 657.21950912 C-206.74989142 657.22014776 -205.89411573 657.22078639 -205.01240745 657.22144438 C-200.64916067 657.22471057 -196.28591392 657.22801232 -191.92266717 657.23132664 C-160.30324355 657.25527188 -128.68381847 657.27437278 -97.06439018 657.29092598 C-65.74084744 657.30733842 -34.41730702 657.32581101 -3.09376717 657.34705925 C-1.63580668 657.34804684 -1.63580668 657.34804684 -0.14839245 657.34905439 C8.72879377 657.35506871 17.60597996 657.36110851 26.48316614 657.36717889 C48.55309526 657.38227039 70.62302459 657.39704222 92.69295406 657.41159725 C93.69808696 657.41226039 94.70321986 657.41292353 95.73881133 657.41360676 C144.65977572 657.4458545 193.58074216 657.47441968 242.50170898 657.50268555 C259.48319501 657.51249926 276.46468102 657.52232924 293.44616699 657.53222656 C294.49932792 657.53284036 295.55248884 657.53345416 296.63756373 657.53408656 C345.57559145 657.56263064 394.51361739 657.5937869 443.45164306 657.62561907 C446.62785034 657.62768502 449.80405762 657.62974984 452.98026489 657.63181442 C474.02875539 657.6454981 495.07724586 657.65922684 516.12573631 657.67298577 C558.00875896 657.70036336 599.89178178 657.7274761 641.77480472 657.75440695 C643.76948575 657.75568953 645.76416677 657.7569723 647.7588478 657.75825526 C737.5808482 657.8160262 827.40285039 657.87071574 917.22485352 657.92407227 C918.06609916 657.92457201 918.90734481 657.92507175 919.77408275 657.92558663 C961.84938839 657.95057903 1003.92469413 657.9753957 1046 658 C1044.7424524 660.53008486 1043.48326251 663.05933041 1042.22314453 665.58813477 C1041.87149734 666.29604408 1041.51985016 667.0039534 1041.157547 667.73331451 C1037.91202511 674.24084429 1034.43890006 680.59824176 1030.875 686.9375 C1030.23175781 688.08863281 1029.58851563 689.23976563 1028.92578125 690.42578125 C1026.95476566 693.95290948 1024.97746764 697.47648506 1023 701 C1021.81487022 703.11575439 1020.62996636 705.23163534 1019.4453125 707.34765625 C1017.72125297 710.42675154 1015.99683628 713.5056426 1014.27099609 716.58374023 C1009.9951083 724.21205367 1005.74321206 731.85346941 1001.5 739.5 C996.68495974 748.17700039 991.85357372 756.84449443 987 765.5 C979.62939064 778.64600159 972.31252832 791.82162594 965 805 C957.11832416 819.20407114 949.22693184 833.40223547 941.27807617 847.56884766 C938.2173554 853.02729849 935.16926492 858.49243449 932.140625 863.96875 C931.815177 864.55668335 931.489729 865.1446167 931.15441895 865.75036621 C929.60027144 868.55802666 928.0480518 871.36670727 926.5 874.17773438 C925.36400181 876.23097434 924.20722469 878.27288613 923.02774453 880.30146021 C921.54330341 882.91251142 920.30109805 885.55575264 919.10967422 888.31188256 C913.94506814 899.5163043 913.94506814 899.5163043 909.10993177 901.95219736 C903.53252051 903.45081323 897.7971125 902.97252962 892.0869751 902.70506287 C890.10112931 902.67674874 888.11515835 902.65633951 886.12915564 902.64298308 C881.73368631 902.59689676 877.34378744 902.4961785 872.95032454 902.35589993 C865.55576391 902.12169871 858.16200477 902.01196528 850.76453018 901.91624355 C848.08414203 901.87942734 845.40376655 901.84219365 842.72340131 901.80379266 C842.04178243 901.79403043 841.36016354 901.7842682 840.65788954 901.77421015 C835.62326221 901.6999866 830.58914342 901.60733531 825.55497432 901.50699216 C801.53674528 901.03069513 777.52236989 900.82385428 753.49987793 900.70755005 C751.56714022 900.69793099 749.63440271 900.68827437 747.70166537 900.67858086 C739.73556503 900.63872096 731.76946299 900.59925045 723.8033552 900.56090556 C701.34415072 900.45160359 678.88530673 900.29403962 656.42641116 900.13462878 C650.79201821 900.09471412 645.15762195 900.0552708 639.52322602 900.0157792 C632.63799478 899.96748212 625.75276404 899.91911688 618.86753492 899.87051782 C602.38088993 899.75415861 585.89423384 899.639485 569.40756989 899.52584648 C568.22218168 899.51767353 567.03679347 899.50950057 565.81548441 899.50107995 C561.0006463 899.46788339 556.18580816 899.43469175 551.37096997 899.40150861 C506.6113603 899.09300045 461.85178375 898.77990935 417.09222103 898.46467236 C377.43178797 898.18537832 337.77132707 897.91040511 298.11083984 897.63891602 C253.27685966 897.33199938 208.44289987 897.02232605 163.60896897 896.70828623 C158.83310592 896.67484135 154.05724282 896.64140363 149.2813797 896.60796928 C148.10590518 896.5997378 146.93043067 896.59150632 145.71933571 896.58302541 C128.03480321 896.45923562 110.35025707 896.33754536 92.66570282 896.21690559 C72.61310973 896.08010159 52.56054021 895.94028008 32.50799599 895.79648263 C21.30981486 895.71626485 10.11162343 895.63835256 -1.08659706 895.56382602 C-8.57506225 895.51375187 -16.0635013 895.46056781 -23.55192709 895.40491451 C-27.80891959 895.37336151 -32.06590967 895.34308776 -36.32293704 895.31661213 C-53.56796377 895.20849553 -70.77773367 894.98942936 -88 894 C-88.05561389 895.62722117 -88.09565876 897.25498074 -88.12890625 898.8828125 C-88.15283447 899.78918457 -88.1767627 900.69555664 -88.20141602 901.62939453 C-88.25407477 904.19616565 -88.25407477 904.19616565 -85.9375 905.875 C-84.968125 906.24625 -83.99875 906.6175 -83 907 C-76.64016736 910.57740586 -76.64016736 910.57740586 -73.609375 912.578125 C-53.6858732 925.53384475 -31.06390476 934.42252878 -9 943 C-7.82679199 943.45616699 -6.65358398 943.91233398 -5.44482422 944.38232422 C12.25809961 951.23282583 30.07934376 957.74283191 48 964 C48.73327515 964.25652344 49.46655029 964.51304687 50.2220459 964.77734375 C148.76783823 1001.34938501 148.76783823 1001.34938501 251.68704224 1017.58447266 C253.05789283 1017.62143502 254.42873748 1017.65861806 255.79957688 1017.69599342 C276.23234629 1018.22486619 296.67479053 1018.38799084 317.11258817 1018.60866451 C323.39391275 1018.67720913 329.67519426 1018.74951624 335.95648193 1018.8213501 C346.81342297 1018.9450306 357.67038674 1019.06647131 368.52737045 1019.18634033 C384.27857532 1019.36027663 400.02973253 1019.53827302 415.78088082 1019.71725059 C423.15811861 1019.80106918 430.53535872 1019.88468204 437.91259956 1019.9682312 C438.65078553 1019.97659141 439.38897151 1019.98495161 440.14952675 1019.99356516 C457.66298163 1020.19185892 475.17645985 1020.38806249 492.68994141 1020.58398438 C493.45465898 1020.59253979 494.21937655 1020.6010952 495.00726738 1020.60990986 C501.20086981 1020.67920165 507.39447231 1020.74848726 513.58807492 1020.81776299 C531.37984756 1021.0167668 549.17161478 1021.21625186 566.96337891 1021.41601562 C567.72491409 1021.42456537 568.48644927 1021.43311512 569.27106128 1021.44192395 C586.72242321 1021.63785871 604.17377985 1021.83425407 621.62512398 1022.0317688 C622.36260337 1022.04011527 623.10008275 1022.04846175 623.85991 1022.05706115 C631.23175388 1022.1404996 638.60359709 1022.22399775 645.97543919 1022.30759362 C661.68790393 1022.48575063 677.40038135 1022.66265301 693.11289028 1022.83687323 C704.58527219 1022.96409127 716.05763571 1023.09285131 727.52998446 1023.22303057 C733.71345299 1023.29313742 739.89692683 1023.36257787 746.08042526 1023.43000031 C778.05792932 1023.77922438 810.02810645 1024.30460611 842 1025 C840.6662609 1029.12577766 839.18011535 1032.76138959 837.05078125 1036.54296875 C836.45789307 1037.60241699 835.86500488 1038.66186523 835.25415039 1039.75341797 C834.29303345 1041.45328857 834.29303345 1041.45328857 833.3125 1043.1875 C832.63673782 1044.39178105 831.96153654 1045.596377 831.28686523 1046.80126953 C829.88680084 1049.30055803 828.48434775 1051.79848216 827.08007812 1054.29541016 C823.88690784 1059.97711362 820.72553631 1065.67648388 817.5625 1071.375 C816.94737549 1072.48190186 816.33225098 1073.58880371 815.69848633 1074.72924805 C811.11642527 1082.97743345 806.55483593 1091.23676549 802 1099.5 C793.75119352 1114.46471517 785.45176809 1129.40108676 777.14550781 1144.33398438 C770.07621184 1157.04458597 763.02102655 1169.76268306 756 1182.5 C749.59918121 1194.11215629 743.17204566 1205.70943233 736.7265625 1217.296875 C734.19592544 1221.84642473 731.67031266 1226.39871276 729.1484375 1230.953125 C728.49947771 1232.12421245 727.85047082 1233.2952738 727.20141602 1234.46630859 C726.00812729 1236.61968809 724.81578178 1238.77359078 723.62475586 1240.92822266 C717.84872637 1251.34482994 711.91138848 1261.65507015 706 1272 C-4.16 1272 -714.32 1272 -1446 1272 C-1441.3112766 1262.62255321 -1436.64756531 1253.31377026 -1431.625 1244.125 C-1431.06466064 1243.09528076 -1430.50432129 1242.06556152 -1429.92700195 1241.00463867 C-1425.91316301 1233.64030591 -1421.85477219 1226.30146077 -1417.76953125 1218.9765625 C-1414.2850096 1212.72442414 -1410.83116546 1206.45533916 -1407.375 1200.1875 C-1406.68514232 1198.93660352 -1405.99528228 1197.68570835 -1405.30541992 1196.43481445 C-1403.90240637 1193.89068021 -1402.49951517 1191.34647853 -1401.09667969 1188.80224609 C-1398.0635026 1183.30138463 -1395.02869237 1177.80142429 -1391.99395752 1172.30142212 C-1390.32923358 1169.28432082 -1388.66462268 1166.26715716 -1387 1163.25 C-1386.33333387 1162.04166637 -1385.6666672 1160.83333304 -1385 1159.625 C-1384.505 1158.7278125 -1384.505 1158.7278125 -1384 1157.8125 C-1383 1156 -1382 1154.1875 -1381 1152.375 C-1380.67001511 1151.77690018 -1380.34003021 1151.17880035 -1380.00004578 1150.56257629 C-1379.33323405 1149.35398449 -1378.66641479 1148.14539685 -1377.99958801 1146.93681335 C-1376.33507902 1143.91996856 -1374.67070006 1140.90305218 -1373.0065918 1137.88598633 C-1369.98100219 1132.400829 -1366.95439805 1126.91624266 -1363.92304993 1121.43426514 C-1362.21890036 1118.35235975 -1360.51552283 1115.27002814 -1358.8125 1112.1875 C-1358.47866302 1111.58331238 -1358.14482605 1110.97912476 -1357.8008728 1110.35662842 C-1353.26067509 1102.13633298 -1348.76803725 1093.89155005 -1344.3125 1085.625 C-1340.15129218 1077.90533441 -1335.89779514 1070.24841754 -1331.5625 1062.625 C-1324.5364314 1050.17882133 -1317.77602938 1037.58405457 -1311 1025 C-1001.46 1024.67 -691.92 1024.34 -373 1024 C-377.91646594 1019.08353406 -382.42061254 1014.62886962 -387.59765625 1010.1796875 C-394.33821727 1004.06386141 -400.61716 997.42736812 -407.01855469 990.9609375 C-416.16869285 981.67146875 -416.16869285 981.67146875 -425.83984375 972.9375 C-432.32681772 967.1191653 -438.31851383 960.72555704 -444.44580078 954.53369141 C-446.34715567 952.61408658 -448.25163664 950.69762101 -450.15625 948.78125 C-450.72420288 948.20499878 -451.29215576 947.62874756 -451.87731934 947.03503418 C-454.81811908 944.0767055 -457.82081149 941.250261 -460.97753906 938.52246094 C-464.8974612 935.13256306 -468.56508215 931.54753567 -472.203125 927.859375 C-472.84820007 927.21051331 -473.49327515 926.56165161 -474.15789795 925.89312744 C-476.19108252 923.84786589 -478.22094848 921.79936137 -480.25 919.75 C-482.93980189 917.03355385 -485.63293812 914.32047717 -488.328125 911.609375 C-488.9385968 910.99060486 -489.5490686 910.37183472 -490.17803955 909.73431396 C-490.75253845 909.15651184 -491.32703735 908.57870972 -491.91894531 907.98339844 C-492.66884735 907.22564117 -492.66884735 907.22564117 -493.43389893 906.45257568 C-497.05970081 903.08960522 -499.19332002 901.6252585 -504.2545197 901.62099248 C-505.86339681 901.60872954 -505.86339681 901.60872954 -507.50477648 901.59621885 C-508.68469274 901.60249555 -509.864609 901.60877225 -511.0802803 901.61523914 C-512.33766896 901.61008924 -513.59505761 901.60493933 -514.89054894 901.59963337 C-518.39842592 901.58569044 -521.90606948 901.59051636 -525.41395647 901.59826221 C-529.22344943 901.60339043 -533.03289213 901.59118276 -536.84236979 901.58113068 C-543.52472211 901.56590598 -550.20700975 901.56184638 -556.88937759 901.56500816 C-566.82586079 901.5696595 -576.76227047 901.55720132 -586.6987392 901.54117843 C-603.41192361 901.51471539 -620.12509142 901.50221587 -636.83829498 901.49761391 C-653.39172704 901.49301053 -669.94513605 901.48223801 -686.49855804 901.46318626 C-687.5269524 901.46200614 -688.55534675 901.46082601 -689.61490457 901.45961012 C-694.83738216 901.45358488 -700.05985962 901.44744904 -705.28233704 901.44127061 C-742.29433839 901.39768281 -779.30633919 901.36798743 -816.31835938 901.34643555 C-852.27995634 901.32546359 -888.24153957 901.29821539 -924.203125 901.26245117 C-925.31118838 901.26135169 -926.41925176 901.26025222 -927.56089282 901.25911942 C-938.68829721 901.2480713 -949.81570146 901.23689537 -960.94310562 901.2256258 C-983.61187031 901.20267032 -1006.28063582 901.18056797 -1028.94940186 901.15898132 C-1029.99172548 901.1579877 -1031.0340491 901.15699409 -1032.10795828 901.15597036 C-1101.73862761 901.08969113 -1171.36931306 901.0433006 -1241 901 C-1239.70606955 897.7144159 -1238.33106036 894.60716097 -1236.63671875 891.5078125 C-1235.93518677 890.22161011 -1235.93518677 890.22161011 -1235.21948242 888.90942383 C-1234.46115112 887.53113403 -1234.46115112 887.53113403 -1233.6875 886.125 C-1233.15552002 885.15393311 -1232.62354004 884.18286621 -1232.07543945 883.18237305 C-1227.80197511 875.40488047 -1223.44706832 867.67479452 -1219.06689453 859.95703125 C-1214.8575547 852.53566046 -1210.70012056 845.08657124 -1206.5625 837.625 C-1201.72746657 828.90583338 -1196.87699012 820.1957719 -1192 811.5 C-1187.14629968 802.84456546 -1182.31509209 794.17697096 -1177.5 785.5 C-1169.79514009 771.61713669 -1162.03676451 757.76459758 -1154.27050781 743.91601562 C-1152.534084 740.81924626 -1150.79811386 737.72222338 -1149.0625 734.625 C-1148.48822266 733.60019531 -1147.91394531 732.57539062 -1147.32226562 731.51953125 C-1143.00839374 723.81515805 -1138.72020552 716.09673125 -1134.4375 708.375 C-1125.08177068 691.51216956 -1115.56775305 674.74356784 -1106 658 C-933.41 658 -760.82 658 -583 658 C-583 642.49 -583 626.98 -583 611 C-582.71165957 602.7623718 -582.39556393 594.58681442 -581.8125 586.375 C-581.74686859 585.38846436 -581.68123718 584.40192871 -581.61361694 583.38549805 C-576.63405392 508.71926346 -563.23094162 434.70059363 -540.12548828 363.47460938 C-538.99433716 359.98251768 -537.8857955 356.48372858 -536.77734375 352.984375 C-526.58652889 321.23232795 -514.17441071 290.17792405 -500 260 C-499.50580566 258.94538574 -499.01161133 257.89077148 -498.50244141 256.80419922 C-495.0675585 249.50351791 -491.55128213 242.2446596 -488 235 C-487.17048828 233.30012939 -487.17048828 233.30012939 -486.32421875 231.56591797 C-478.8962279 216.37668274 -471.14040369 201.45903621 -462.64746094 186.83740234 C-460.95604617 183.92429885 -459.27828066 181.0036146 -457.6015625 178.08203125 C-445.55870444 157.17818467 -432.86323334 136.74729165 -419 117 C-418.34572021 116.06220703 -418.34572021 116.06220703 -417.67822266 115.10546875 C-408.04043026 101.30820806 -397.83093704 87.88253092 -387 75 C-386.56397461 74.47905762 -386.12794922 73.95811523 -385.67871094 73.42138672 C-371.92355174 57.02321049 -357.38484566 40.82285161 -341 27 C-340.10539062 26.21625 -339.21078125 25.4325 -338.2890625 24.625 C-323.00524229 11.3104127 -306.59381225 0.03186007 -289 -10 C-288.3620752 -10.37318359 -287.72415039 -10.74636719 -287.06689453 -11.13085938 C-199.82847097 -62.1016237 -93.18177919 -40.73423908 0 0 Z " fill="#000000" transform="translate(1480,101)"/>
</svg>
